<?xml version="1.0" encoding="UTF-8"?>
<!DOCTYPE svg PUBLIC "-//W3C//DTD SVG 1.1//EN" "http://www.w3.org/Graphics/SVG/1.1/DTD/svg11.dtd">
<svg version="1.1" xmlns="http://www.w3.org/2000/svg" xmlns:xlink="http://www.w3.org/1999/xlink" x="0" y="0" width="416.513" height="176.037" viewBox="0, 0, 416.513, 176.037">
  <g id="Layer_1">
    <g>
      <path d="M416.513,110.131 C416.513,146.511 386.987,176.036 350.607,176.036 C314.227,176.036 284.701,146.511 284.701,110.131 C284.701,73.75 314.227,44.225 350.607,44.225 C386.987,44.225 416.513,73.75 416.513,110.131 z M350.607,70.587 C328.727,70.587 311.064,88.25 311.064,110.131 C311.064,132.011 328.727,149.674 350.607,149.674 C372.488,149.674 390.151,132.011 390.151,110.131 C390.151,88.25 372.488,70.587 350.607,70.587 z" fill="#FFFFFF"/>
      <path d="M187.547,176.036 L161.185,176.036 L161.185,44.225 L187.547,44.225 L187.547,83.539 L225.763,45.323 L263.98,45.323 L198.623,110.68 L263.98,176.036 L225.763,176.036 L187.547,137.82 L187.547,176.036 z" fill="#FFFFFF"/>
      <g>
        <path d="M131.812,110.131 C131.812,146.511 102.286,176.037 65.906,176.037 C29.526,176.037 0,146.511 0,110.131 C0,73.751 29.526,44.225 65.906,44.225 C102.286,44.225 131.812,73.751 131.812,110.131 z M65.906,70.587 C44.025,70.587 26.362,88.25 26.362,110.131 C26.362,132.011 44.025,149.674 65.906,149.674 C87.787,149.674 105.45,132.011 105.45,110.131 C105.45,88.25 87.787,70.587 65.906,70.587 z" fill="#FFFFFF"/>
        <path d="M38.842,25.207 C31.877,25.207 26.239,19.568 26.239,12.603 C26.239,5.638 31.877,-0 38.842,-0 C45.807,-0 51.446,5.638 51.446,12.603 C51.446,19.568 45.807,25.207 38.842,25.207 z" fill="#FFFFFF"/>
        <path d="M88.514,25.207 C81.549,25.207 75.911,19.568 75.911,12.603 C75.911,5.638 81.549,-0 88.514,-0 C95.479,-0 101.117,5.638 101.117,12.603 C101.117,19.568 95.479,25.207 88.514,25.207 z" fill="#FFFFFF"/>
      </g>
    </g>
  </g>
</svg>
