<?xml version="1.0" encoding="UTF-8"?>
<!DOCTYPE svg PUBLIC "-//W3C//DTD SVG 1.1//EN" "http://www.w3.org/Graphics/SVG/1.1/DTD/svg11.dtd">
<svg version="1.1" xmlns="http://www.w3.org/2000/svg" xmlns:xlink="http://www.w3.org/1999/xlink" x="0" y="0" width="782.387" height="344.476" viewBox="0, 0, 782.387, 344.476">
  <g id="Layer_1">
    <g>
      <g>
        <path d="M291.349,278.603 C291.349,295.606 277.55,309.405 260.547,309.405 C243.545,309.405 229.745,295.606 229.745,278.603 C229.745,261.601 243.545,247.802 260.547,247.802 C277.55,247.802 291.349,261.601 291.349,278.603 z M260.547,260.122 C250.321,260.122 242.066,268.377 242.066,278.603 C242.066,288.83 250.321,297.084 260.547,297.084 C270.773,297.084 279.028,288.83 279.028,278.603 C279.028,268.377 270.773,260.122 260.547,260.122 z" fill="#FFFFFF"/>
        <path d="M229.745,217.14 L242.066,217.14 L242.066,278.938 L229.745,278.938 L229.745,217.14 z" fill="#FFFFFF"/>
      </g>
      <g>
        <path d="M297.377,278.603 C297.377,261.601 311.176,247.802 328.179,247.802 C345.181,247.802 358.981,261.601 358.981,278.603 C358.981,295.606 345.181,309.405 328.179,309.405 C311.176,309.405 297.377,295.606 297.377,278.603 z M328.179,297.084 C338.405,297.084 346.66,288.83 346.66,278.603 C346.66,268.377 338.405,260.122 328.179,260.122 C317.953,260.122 309.698,268.377 309.698,278.603 C309.698,288.83 317.953,297.084 328.179,297.084 z" fill="#FFFFFF"/>
        <path d="M358.981,309.405 L346.66,309.405 L346.66,278.268 L358.981,278.268 L358.981,309.405 z" fill="#FFFFFF"/>
      </g>
      <path d="M365.602,278.603 C365.602,261.601 379.401,247.802 396.403,247.802 C413.406,247.802 427.205,261.601 427.205,278.603 C427.205,295.606 413.406,309.405 396.403,309.405 C379.401,309.405 365.602,295.606 365.602,278.603 z M396.403,297.084 C406.63,297.084 414.884,288.83 414.884,278.603 C414.884,268.377 406.63,260.122 396.403,260.122 C386.177,260.122 377.922,268.377 377.922,278.603 C377.922,288.83 386.177,297.084 396.403,297.084 z" fill="#FFFFFF"/>
      <path d="M427.205,315.729 L414.884,315.729 L414.884,278.268 L427.205,278.268 L427.205,315.729 z" fill="#FFFFFF"/>
      <path d="M427.204,312.57 L427.205,312.674 C427.205,329.677 413.406,343.476 396.403,343.476 C379.401,343.476 365.602,329.677 365.602,312.674 L365.603,312.57 L377.924,312.57 L377.922,312.674 C377.922,322.9 386.177,331.155 396.403,331.155 C406.63,331.155 414.884,322.9 414.884,312.674 L414.883,312.57 L427.204,312.57 z" fill="#FFFFFF"/>
      <path d="M70.504,278.603 C70.504,295.606 56.705,309.405 39.702,309.405 C22.7,309.405 8.9,295.606 8.9,278.603 C8.9,261.601 22.7,247.802 39.702,247.802 C56.705,247.802 70.504,261.601 70.504,278.603 z M39.702,260.122 C29.476,260.122 21.221,268.377 21.221,278.603 C21.221,288.83 29.476,297.084 39.702,297.084 C49.928,297.084 58.183,288.83 58.183,278.603 C58.183,268.377 49.928,260.122 39.702,260.122 z" fill="#FFFFFF"/>
      <path d="M58.183,217.14 L70.504,217.14 L70.504,278.938 L58.183,278.938 L58.183,217.14 z" fill="#FFFFFF"/>
      <path d="M139.442,309.405 L127.122,309.405 L127.122,278.268 L139.442,278.268 L139.442,309.405 z" fill="#FFFFFF"/>
      <path d="M77.839,278.603 C77.839,261.601 91.638,247.802 108.641,247.802 C125.643,247.802 139.442,261.601 139.442,278.603 C139.442,295.606 125.643,309.405 108.641,309.405 C91.638,309.405 77.839,295.606 77.839,278.603 z M108.641,297.084 C118.867,297.084 127.122,288.83 127.122,278.603 C127.122,268.377 118.867,260.122 108.641,260.122 C98.414,260.122 90.16,268.377 90.16,278.603 C90.16,288.83 98.414,297.084 108.641,297.084 z" fill="#FFFFFF"/>
      <path d="M166.384,262.14 C163.835,262.589 162.11,264.79 161.975,267.303 C162.052,269.763 163.772,271.696 166.1,272.357 L166.1,272.314 C176.43,273.203 184.165,280.314 184.707,290.859 C184.471,301.516 176.28,308.441 166.1,309.405 L147.776,309.405 L147.776,296.079 L166.1,296.079 L166.1,296.022 C168.648,295.573 170.373,293.372 170.509,290.859 C170.431,288.399 168.711,286.466 166.384,285.805 L166.384,285.848 C156.053,284.959 148.318,277.848 147.776,267.303 C148.012,256.646 156.204,249.721 166.384,248.757 L184.707,248.757 L184.707,262.083 L166.384,262.083 L166.384,262.14 z" fill="#FFFFFF"/>
    </g>
    <g>
      <path d="M425.013,110.131 C425.013,146.511 395.487,176.036 359.107,176.036 C322.727,176.036 293.201,146.511 293.201,110.131 C293.201,73.75 322.727,44.225 359.107,44.225 C395.487,44.225 425.013,73.75 425.013,110.131 z M359.107,70.587 C337.227,70.587 319.564,88.25 319.564,110.131 C319.564,132.011 337.227,149.674 359.107,149.674 C380.988,149.674 398.651,132.011 398.651,110.131 C398.651,88.25 380.988,70.587 359.107,70.587 z" fill="#FFFFFF"/>
      <path d="M196.047,176.036 L169.685,176.036 L169.685,44.225 L196.047,44.225 L196.047,83.539 L234.263,45.323 L272.48,45.323 L207.123,110.68 L272.48,176.036 L234.263,176.036 L196.047,137.82 L196.047,176.036 z" fill="#FFFFFF"/>
      <g>
        <path d="M140.312,110.131 C140.312,146.511 110.786,176.037 74.406,176.037 C38.026,176.037 8.5,146.511 8.5,110.131 C8.5,73.751 38.026,44.225 74.406,44.225 C110.786,44.225 140.312,73.751 140.312,110.131 z M74.406,70.587 C52.525,70.587 34.862,88.25 34.862,110.131 C34.862,132.011 52.525,149.674 74.406,149.674 C96.287,149.674 113.95,132.011 113.95,110.131 C113.95,88.25 96.287,70.587 74.406,70.587 z" fill="#FFFFFF"/>
        <path d="M47.342,25.207 C40.377,25.207 34.739,19.568 34.739,12.603 C34.739,5.638 40.377,-0 47.342,-0 C54.307,-0 59.946,5.638 59.946,12.603 C59.946,19.568 54.307,25.207 47.342,25.207 z" fill="#FFFFFF"/>
        <path d="M97.014,25.207 C90.049,25.207 84.411,19.568 84.411,12.603 C84.411,5.638 90.049,-0 97.014,-0 C103.979,-0 109.617,5.638 109.617,12.603 C109.617,19.568 103.979,25.207 97.014,25.207 z" fill="#FFFFFF"/>
      </g>
    </g>
    <g>
      <g>
        <path d="M590.425,147.066 L774.387,147.066 L774.387,285.276 C774.387,301.45 761.275,314.561 745.101,314.561 L619.711,314.561 C603.537,314.561 590.425,301.45 590.425,285.276 L590.425,147.066 z" fill="#FFFFFF"/>
        <path d="M590.425,147.066 L774.387,147.066 L774.387,285.276 C774.387,301.45 761.275,314.561 745.101,314.561 L619.711,314.561 C603.537,314.561 590.425,301.45 590.425,285.276 L590.425,147.066 z" fill-opacity="0" stroke="#FFFFFF" stroke-width="9"/>
      </g>
      <g>
        <path d="M625.06,148.286 C625.06,148.286 626.436,37.884 684.028,32.261 C732.712,36.856 732.371,148.286 732.371,148.286 C732.371,148.286 718.176,148.286 718.176,148.286 C718.176,148.286 716.496,42.558 683.924,37.278 C639.703,42.901 638.687,148.286 638.687,148.286 C638.687,148.286 625.06,148.286 625.06,148.286 z" fill="#FFFFFF"/>
        <path d="M625.06,148.286 C625.06,148.286 626.436,37.884 684.028,32.261 C732.712,36.856 732.371,148.286 732.371,148.286 C732.371,148.286 718.176,148.286 718.176,148.286 C718.176,148.286 716.496,42.558 683.924,37.278 C639.703,42.901 638.687,148.286 638.687,148.286 C638.687,148.286 625.06,148.286 625.06,148.286 z" fill-opacity="0" stroke="#FFFFFF" stroke-width="9"/>
      </g>
    </g>
    <g>
      <path d="M1064.387,147.066 L1064.387,285.276 C1064.387,301.45 1051.275,314.561 1035.101,314.561 L909.711,314.561 C893.537,314.561 880.425,301.45 880.425,285.276 L880.425,147.066" fill="#FFFFFF"/>
      <path d="M1064.387,147.066 L1064.387,285.276 C1064.387,301.45 1051.275,314.561 1035.101,314.561 L909.711,314.561 C893.537,314.561 880.425,301.45 880.425,285.276 L880.425,147.066" fill-opacity="0" stroke="#8400BB" stroke-width="2" stroke-dasharray="6,4"/>
    </g>
  </g>
</svg>
