<?xml version="1.0" encoding="UTF-8"?>
<!DOCTYPE svg PUBLIC "-//W3C//DTD SVG 1.1//EN" "http://www.w3.org/Graphics/SVG/1.1/DTD/svg11.dtd">
<svg version="1.1" xmlns="http://www.w3.org/2000/svg" xmlns:xlink="http://www.w3.org/1999/xlink" x="0" y="0" width="782.387" height="344.476" viewBox="0, 0, 782.387, 344.476">
  <g id="Layer_1">
    <g>
      <path d="M425.013,110.131 C425.013,146.511 395.487,176.036 359.107,176.036 C322.727,176.036 293.201,146.511 293.201,110.131 C293.201,73.75 322.727,44.225 359.107,44.225 C395.487,44.225 425.013,73.75 425.013,110.131 z M359.107,70.587 C337.227,70.587 319.564,88.25 319.564,110.131 C319.564,132.011 337.227,149.674 359.107,149.674 C380.988,149.674 398.651,132.011 398.651,110.131 C398.651,88.25 380.988,70.587 359.107,70.587 z" fill="#FFFFFF"/>
      <path d="M196.047,176.036 L169.685,176.036 L169.685,44.225 L196.047,44.225 L196.047,83.539 L234.263,45.323 L272.48,45.323 L207.123,110.68 L272.48,176.036 L234.263,176.036 L196.047,137.82 L196.047,176.036 z" fill="#FFFFFF"/>
      <g>
        <path d="M140.312,110.131 C140.312,146.511 110.786,176.037 74.406,176.037 C38.026,176.037 8.5,146.511 8.5,110.131 C8.5,73.751 38.026,44.225 74.406,44.225 C110.786,44.225 140.312,73.751 140.312,110.131 z M74.406,70.587 C52.525,70.587 34.862,88.25 34.862,110.131 C34.862,132.011 52.525,149.674 74.406,149.674 C96.287,149.674 113.95,132.011 113.95,110.131 C113.95,88.25 96.287,70.587 74.406,70.587 z" fill="#FFFFFF"/>
        <path d="M47.342,25.207 C40.377,25.207 34.739,19.568 34.739,12.603 C34.739,5.638 40.377,-0 47.342,-0 C54.307,-0 59.946,5.638 59.946,12.603 C59.946,19.568 54.307,25.207 47.342,25.207 z" fill="#FFFFFF"/>
        <path d="M97.014,25.207 C90.049,25.207 84.411,19.568 84.411,12.603 C84.411,5.638 90.049,-0 97.014,-0 C103.979,-0 109.617,5.638 109.617,12.603 C109.617,19.568 103.979,25.207 97.014,25.207 z" fill="#FFFFFF"/>
      </g>
    </g>
    <g>
      <path d="M175.313,248.802 C182.921,248.863 189.37,252.663 192.973,258.864 L180.643,265.517 C179.778,263.43 177.687,262.128 175.313,262.072 C172.166,262.072 169.615,264.456 169.615,267.397 C169.682,270.383 171.925,272.428 175.039,272.716 L175.039,285.986 C163.912,285.755 155.695,277.679 155.417,267.397 C155.417,257.127 164.325,248.802 175.313,248.802 L175.313,248.802 z" fill="#7000BA"/>
      <path d="M293.747,279.603 C293.747,296.606 279.947,310.405 262.945,310.405 C245.942,310.405 232.143,296.606 232.143,279.603 C232.143,262.601 245.942,248.801 262.945,248.801 C279.947,248.801 293.747,262.601 293.747,279.603 z M262.945,261.122 C252.719,261.122 244.464,269.377 244.464,279.603 C244.464,289.829 252.719,298.084 262.945,298.084 C273.171,298.084 281.426,289.829 281.426,279.603 C281.426,269.377 273.171,261.122 262.945,261.122 z" fill="#7000BA"/>
      <path d="M232.143,218.14 L244.464,218.14 L244.464,279.938 L232.143,279.938 L232.143,218.14 z" fill="#7000BA"/>
      <path d="M298.376,279.603 C298.376,262.601 312.175,248.801 329.177,248.801 C346.18,248.801 359.979,262.601 359.979,279.603 C359.979,296.606 346.18,310.405 329.177,310.405 C312.175,310.405 298.376,296.606 298.376,279.603 z M329.177,298.084 C339.404,298.084 347.658,289.829 347.658,279.603 C347.658,269.377 339.404,261.122 329.177,261.122 C318.951,261.122 310.696,269.377 310.696,279.603 C310.696,289.829 318.951,298.084 329.177,298.084 z" fill="#7000BA"/>
      <path d="M359.979,310.405 L347.658,310.405 L347.658,279.268 L359.979,279.268 L359.979,310.405 z" fill="#7000BA"/>
      <path d="M365.201,279.603 C365.201,262.601 379,248.801 396.003,248.801 C413.005,248.801 426.805,262.601 426.805,279.603 C426.805,296.606 413.005,310.405 396.003,310.405 C379,310.405 365.201,296.606 365.201,279.603 z M396.003,298.084 C406.229,298.084 414.484,289.829 414.484,279.603 C414.484,269.377 406.229,261.122 396.003,261.122 C385.777,261.122 377.522,269.377 377.522,279.603 C377.522,289.829 385.777,298.084 396.003,298.084 z" fill="#7000BA"/>
      <path d="M426.805,316.729 L414.484,316.729 L414.484,279.268 L426.805,279.268 L426.805,316.729 z" fill="#7000BA"/>
      <path d="M426.803,313.57 L426.805,313.674 C426.805,330.677 413.006,344.476 396.003,344.476 C379,344.476 365.201,330.677 365.201,313.674 L365.202,313.57 L377.523,313.57 L377.522,313.674 C377.522,323.9 385.777,332.155 396.003,332.155 C406.229,332.155 414.484,323.9 414.484,313.674 L414.483,313.57 L426.803,313.57 z" fill="#7000BA"/>
      <path d="M70.104,279.603 C70.104,296.606 56.304,310.405 39.302,310.405 C22.299,310.405 8.5,296.606 8.5,279.603 C8.5,262.601 22.299,248.802 39.302,248.802 C56.304,248.802 70.104,262.601 70.104,279.603 z M39.302,261.122 C29.076,261.122 20.821,269.377 20.821,279.603 C20.821,289.829 29.076,298.084 39.302,298.084 C49.528,298.084 57.783,289.829 57.783,279.603 C57.783,269.377 49.528,261.122 39.302,261.122 z" fill="#7000BA"/>
      <path d="M57.783,218.14 L70.104,218.14 L70.104,279.938 L57.783,279.938 L57.783,218.14 z" fill="#7000BA"/>
      <path d="M139.042,310.405 L126.721,310.405 L126.721,279.268 L139.042,279.268 L139.042,310.405 z" fill="#7000BA"/>
      <path d="M77.438,279.603 C77.438,262.601 91.238,248.802 108.24,248.802 C125.243,248.802 139.042,262.601 139.042,279.603 C139.042,296.606 125.243,310.405 108.24,310.405 C91.238,310.405 77.438,296.606 77.438,279.603 z M108.24,298.084 C118.466,298.084 126.721,289.83 126.721,279.603 C126.721,269.377 118.466,261.122 108.24,261.122 C98.014,261.122 89.759,269.377 89.759,279.603 C89.759,289.83 98.014,298.084 108.24,298.084 z" fill="#7000BA"/>
      <path d="M173.077,310.405 C165.47,310.343 159.021,306.544 155.417,300.343 L167.747,293.689 C168.612,295.777 170.703,297.079 173.077,297.135 C176.224,297.135 178.775,294.751 178.775,291.81 C178.709,288.824 176.465,286.779 173.351,286.491 L173.351,273.221 C184.478,273.452 192.695,281.527 192.973,291.81 C192.973,302.08 184.066,310.405 173.077,310.405 L173.077,310.405 z" fill="#7000BA"/>
    </g>
    <g>
      <g>
        <path d="M590.425,147.066 L774.387,147.066 L774.387,285.276 C774.387,301.45 761.275,314.561 745.101,314.561 L619.711,314.561 C603.537,314.561 590.425,301.45 590.425,285.276 L590.425,147.066 z" fill="#FFFFFF"/>
        <path d="M590.425,147.066 L774.387,147.066 L774.387,285.276 C774.387,301.45 761.275,314.561 745.101,314.561 L619.711,314.561 C603.537,314.561 590.425,301.45 590.425,285.276 L590.425,147.066 z" fill-opacity="0" stroke="#FFFFFF" stroke-width="9"/>
      </g>
      <g>
        <path d="M625.06,148.286 C625.06,148.286 626.436,37.884 684.028,32.261 C732.712,36.856 732.371,148.286 732.371,148.286 C732.371,148.286 718.176,148.286 718.176,148.286 C718.176,148.286 716.496,42.558 683.924,37.278 C639.703,42.901 638.687,148.286 638.687,148.286 C638.687,148.286 625.06,148.286 625.06,148.286 z" fill="#FFFFFF"/>
        <path d="M625.06,148.286 C625.06,148.286 626.436,37.884 684.028,32.261 C732.712,36.856 732.371,148.286 732.371,148.286 C732.371,148.286 718.176,148.286 718.176,148.286 C718.176,148.286 716.496,42.558 683.924,37.278 C639.703,42.901 638.687,148.286 638.687,148.286 C638.687,148.286 625.06,148.286 625.06,148.286 z" fill-opacity="0" stroke="#FFFFFF" stroke-width="9"/>
      </g>
    </g>
  </g>
</svg>
